0
SECTION
2
HEADER
9
$INSUNITS
70
4
9
$ACADVER
1
AC1014
9
$HANDSEED
5
FFFF
0
ENDSEC
0
SECTION
2
TABLES
0
TABLE
2
VPORT
5
8
100
AcDbSymbolTable
0
ENDTAB
0
TABLE
2
LTYPE
5
5
100
AcDbSymbolTable
0
LTYPE
5
14
100
AcDbSymbolTableRecord
100
AcDbLinetypeTableRecord
2
BYBLOCK
70
0
0
LTYPE
5
15
100
AcDbSymbolTableRecord
100
AcDbLinetypeTableRecord
2
BYLAYER
70
0
0
LTYPE
5
16
100
AcDbSymbolTableRecord
100
AcDbLinetypeTableRecord
2
DASHED
70
0
3
Dashed __ __ __ __ __ __ __ __ __ __ __ __ __ _
72
65
73
2
40
0.75
49
0.5
74
0
49
-0.25
74
0
0
ENDTAB
0
TABLE
2
LAYER
5
2
100
AcDbSymbolTable
70
2
0
LAYER
5
50
100
AcDbSymbolTableRecord
100
AcDbLayerTableRecord
2
0
70
0
62
7
6
CONTINUOUS
0
ENDTAB
0
TABLE
2
STYLE
5
3
100
AcDbSymbolTable
70
1
0
STYLE
5
11
100
AcDbSymbolTableRecord
100
AcDbTextStyleTableRecord
2
STANDARD
70
0
0
ENDTAB
0
TABLE
2
VIEW
5
6
100
AcDbSymbolTable
70
0
0
ENDTAB
0
TABLE
2
UCS
5
7
100
AcDbSymbolTable
70
0
0
ENDTAB
0
TABLE
2
APPID
5
9
100
AcDbSymbolTable
70
2
0
APPID
5
12
100
AcDbSymbolTableRecord
100
AcDbRegAppTableRecord
2
ACAD
70
0
0
ENDTAB
0
TABLE
2
DIMSTYLE
5
A
100
AcDbSymbolTable
70
1
0
ENDTAB
0
TABLE
2
BLOCK_RECORD
5
1
100
AcDbSymbolTable
70
1
0
BLOCK_RECORD
5
1F
100
AcDbSymbolTableRecord
100
AcDbBlockTableRecord
2
*MODEL_SPACE
0
BLOCK_RECORD
5
1B
100
AcDbSymbolTableRecord
100
AcDbBlockTableRecord
2
*PAPER_SPACE
0
ENDTAB
0
ENDSEC
0
SECTION
2
BLOCKS
0
BLOCK
5
20
100
AcDbEntity
100
AcDbBlockBegin
2
*MODEL_SPACE
0
ENDBLK
5
21
100
AcDbEntity
100
AcDbBlockEnd
0
BLOCK
5
1C
100
AcDbEntity
100
AcDbBlockBegin
2
*PAPER_SPACE
0
ENDBLK
5
1D
100
AcDbEntity
100
AcDbBlockEnd
0
ENDSEC
0
SECTION
2
ENTITIES
0
CIRCLE
5
100
100
AcDbEntity
8
0
100
AcDbCircle
10
-44.000000655651093
20
17.500000260770321
30
0
40
1.5999999999999979
210
0
220
0
230
1
0
LINE
5
101
100
AcDbEntity
8
0
100
AcDbLine
10
0
20
-75
30
0
11
0
21
75
31
0
0
CIRCLE
5
102
100
AcDbEntity
8
0
100
AcDbCircle
10
-44.000000655651093
20
0.50000026077032134
30
0
40
1.5999999999999974
210
0
220
0
230
1
0
CIRCLE
5
103
100
AcDbEntity
8
0
100
AcDbCircle
10
-24.5
20
9.0000002607703209
30
0
40
6.6000000000000005
210
0
220
0
230
1
0
CIRCLE
5
104
100
AcDbEntity
8
0
100
AcDbCircle
10
60.25
20
17.500000260770321
30
0
40
1.6000000000000039
210
0
220
0
230
1
0
CIRCLE
5
105
100
AcDbEntity
8
0
100
AcDbCircle
10
60.25
20
0.50000026077032134
30
0
40
1.6000000000000036
210
0
220
0
230
1
0
LINE
5
106
100
AcDbEntity
8
0
100
AcDbLine
10
-24.5
20
9.0000002607703209
30
0
11
77.000001147389412
21
9.0000002607703209
31
0
0
LWPOLYLINE
5
107
100
AcDbEntity
8
0
100
AcDbPolyline
90
8
70
1
43
0.0
10
-48.250000655651093
20
17.500000260770321
10
-48.250000655651093
20
0.50000026077031534
42
0.41421356237309465
10
-44.000000655651093
20
-3.7499997392296835
10
-42.500000633299358
20
-3.7499997392296858
42
-0.24678446757988559
10
-41.000000610947609
20
-4.9999998211860675
10
-41.000000610947602
20
23.000000342726707
42
-0.24678446757988559
10
-42.500000633299351
20
21.750000260770324
10
-44.000000655651093
20
21.750000260770324
42
0.41421356237309503
0
LINE
5
108
100
AcDbEntity
8
0
100
AcDbLine
10
63.75
20
17.500000260770321
30
0
11
63.75
21
0.50000026077032134
31
0
0
LINE
5
109
100
AcDbEntity
8
0
100
AcDbLine
10
-24.5
20
9.0000002607703209
30
0
11
-24.5
21
34.500000514090061
31
0
0
LINE
5
110
100
AcDbEntity
8
0
100
AcDbLine
10
40.000000596046448
20
37.000000551342964
30
0
11
-24.5
21
34.500000514090061
31
0
0
ARC
5
111
100
AcDbEntity
8
0
100
AcDbCircle
10
40.73250981658181
20
18.101262768499996
30
0
40
18.912928370372089
210
0
220
-0
230
1
100
AcDbArc
50
15.011640802579356
51
92.219655565748866
0
ARC
5
112
100
AcDbEntity
8
0
100
AcDbCircle
10
61.049648740956684
20
23.549648182163146
30
0
40
2.1220671772425073
210
0
220
0
230
1
100
AcDbArc
50
195.01164080257942
51
254.98835919742075
0
ARC
5
113
100
AcDbEntity
8
0
100
AcDbCircle
10
59.361551190650289
20
17.254698423017373
30
0
40
4.3952993008312689
210
0
220
-0
230
1
100
AcDbArc
50
3.1993421825825856
51
74.988359197420721
0
ARC
5
114
100
AcDbEntity
8
0
100
AcDbCircle
10
-23.778194109517337
20
15.877408645043623
30
0
40
18.636575105544743
210
0
220
0
230
1
100
AcDbArc
50
92.219655565748852
51
157.53099993408239
0
ARC
5
115
100
AcDbEntity
8
0
100
AcDbCircle
10
-23.778194109517337
20
2.1225918764970175
30
0
40
18.636575105544743
210
0
220
0
230
1
100
AcDbArc
50
202.46900006591761
51
267.78034443425111
0
LINE
5
116
100
AcDbEntity
8
0
100
AcDbLine
10
40.000000596046448
20
-19.000000029802322
30
0
11
-24.5
21
-16.499999992549419
31
0
0
ARC
5
117
100
AcDbEntity
8
0
100
AcDbCircle
10
40.73250981658181
20
-0.10126224695935493
30
0
40
18.912928370372097
210
0
220
0
230
1
100
AcDbArc
50
267.78034443425111
51
344.98835919742066
0
ARC
5
118
100
AcDbEntity
8
0
100
AcDbCircle
10
61.049648740956684
20
-5.5496476606225054
30
0
40
2.122067177242513
210
0
220
0
230
1
100
AcDbArc
50
105.01164080257942
51
164.98835919742061
0
ARC
5
119
100
AcDbEntity
8
0
100
AcDbCircle
10
59.361551190650303
20
0.74530209852326612
30
0
40
4.3952993008312671
210
-0
220
0
230
1
100
AcDbArc
50
285.01164080257905
51
356.8006578174174
0
LWPOLYLINE
5
120
100
AcDbEntity
8
0
100
AcDbPolyline
90
18
70
1
43
0.0
10
65.750000000000014
20
17.550629086401798
10
65.750000000000014
20
0.44937143513866989
42
-0.29057334595194756
10
61.812841452678065
20
-5.1615607912432457
42
0.22131080189161537
10
60.672481092709994
20
-6.4058731414949888
42
-0.33786754070328273
10
39.9225393794447
20
-20.998499406815636
10
-24.577461216601748
20
-18.498499369562726
42
-0.27696200061209481
10
-42.348665974760742
20
-6.8777307171099435
42
0.28741837237566475
10
-44.148428946112887
20
-5.7499997392296827
10
-44.000000655651093
20
-5.7499997392296791
42
-0.41421356237309465
10
-50.250000655651093
20
0.50000026077031245
10
-50.250000655651093
20
17.500000260770321
42
-0.41421356237309503
10
-44.000000655651093
20
23.750000260770321
10
-44.148428946112872
20
23.750000260770321
42
0.28741837237566126
10
-42.348665974760742
20
24.877731238650593
42
-0.27696200061209458
10
-24.577461216601751
20
36.498499891103371
10
39.9225393794447
20
38.998499928356274
42
-0.3378675407032819
10
60.672481092709972
20
24.405873663035685
42
0.22131080189157928
10
61.812841452678036
20
23.161561312783903
42
-0.290573345951956
0
ARC
5
121
100
AcDbEntity
8
0
100
AcDbCircle
10
61.049648740956684
20
-5.5496476606225054
30
0
40
0.1220671772425099
210
0
220
0
230
1
100
AcDbArc
50
105.01164080258756
51
164.98835919742066
0
ARC
5
122
100
AcDbEntity
8
0
100
AcDbCircle
10
-42.939167703502577
20
-5.8020002055653253
30
0
40
0.098469353932181675
210
0
220
-0
230
1
100
AcDbArc
50
22.469000065918348
51
31.876347262732217
0
ARC
5
123
100
AcDbEntity
8
0
100
AcDbCircle
10
-42.939167703502577
20
23.802000727105966
30
0
40
0.098469353932185547
210
0
220
0
230
1
100
AcDbArc
50
328.12365273726738
51
337.53099993408341
0
ARC
5
124
100
AcDbEntity
8
0
100
AcDbCircle
10
61.049648740956684
20
23.549648182163146
30
0
40
0.12206717724250422
210
0
220
0
230
1
100
AcDbArc
50
195.01164080258141
51
254.98835919742262
0
LINE
5
125
100
AcDbEntity
8
0
100
AcDbLine
10
59.00000087916851
20
23.000000342726707
30
0
11
59.000000879168503
21
-4.9999998211860675
31
0
0
ENDSEC
0
SECTION
2
OBJECTS
0
DICTIONARY
5
C
100
AcDbDictionary
3
ACAD_GROUP
350
D
3
ACAD_MLINESTYLE
350
17
0
DICTIONARY
5
D
100
AcDbDictionary
0
DICTIONARY
5
1A
330
C
100
AcDbDictionary
0
DICTIONARY
5
17
100
AcDbDictionary
0
ENDSEC
0
EOF
